# xmcd
#
# Track frame offsets:
#	150
#	20135
#	33459
#	46758
#	57304
#	78559
#	95825
#	109192
#	128298
#	138916
#	149848
#	169481
#	188867
#	203208
#	215490
#	237793
#	247737
#	259451
#	271088
#	281624
#	301194
#	319957
#	335691
#	349959
#
# Disc length: 4792 seconds
#
# Revision: 0
# Processed by: cddbd v1.5.1PL2 Copyright (c) Steve Scherf et al.
# Submitted via: audiograbber 1.83.01
#
DISCID=7412b618
DTITLE=Verschiedene - Country Mix 2
DYEAR=1900
DGENRE=Country
TTITLE0=Kenny Rogers - Coward Of The County
TTITLE1=Tanya Tucker - Delta Dawn
TTITLE2=Bobby Bare - Detroit City
TTITLE3=Charlie Pride - Does My Ring Hurt Your Finger
TTITLE4=Marty Robbins - El Paso
TTITLE5=Terri Clark - Everytime I Cry
TTITLE6=Lorrie Morgan - Except For Monday
TTITLE7=John Denver - Fly Away
TTITLE8=Lester Flatt and Earl Scruggs - Foggy Mountain Breakdown
TTITLE9=Ralph Stanley and Gillian Welch - Gold Watch and Chain
TTITLE10=Alan Jackson - Gone Country
TTITLE11=The Judds - Grandpa
TTITLE12=Samson - He Drinks Tequila
TTITLE13=Heidi Hauge - He Thinks I Still Care
TTITLE14=Ty Herndon and Stephanie Bentley - Heart Half Empty
TTITLE15=George Straight - Heartland
TTITLE16=The Kendalls - Heaven's Just A Sin Away
TTITLE17=Carl Smith - Hey Joe
TTITLE18=Jimmy Rogers - Honeycomb
TTITLE19=John Michael Montgomery - How Was I To Know
TTITLE20=Don Williams - I Believe In You
TTITLE21=Reba MacIntyre - Id Rather Ride Around With You
TTITLE22=Kenny Chesney - I Want To Know Forever Feels
TTITLE23=Dolly Parton and Porter Wagoner - If Tear Drops Were Pennies
EXTD=
EXTT0=
EXTT1=
EXTT2=
EXTT3=
EXTT4=
EXTT5=
EXTT6=
EXTT7=
EXTT8=
EXTT9=
EXTT10=
EXTT11=
EXTT12=
EXTT13=
EXTT14=
EXTT15=
EXTT16=
EXTT17=
EXTT18=
EXTT19=
EXTT20=
EXTT21=
EXTT22=
EXTT23=
PLAYORDER=
